<svg version="1.2" xmlns="http://www.w3.org/2000/svg" viewBox="0 0 800 800" width="800" height="800">
	<title>logo</title>
	<defs>
		<filter x="-50%" y="-50%" width="200%" height="200%" id="f1"> <feGaussianBlur stdDeviation="NaN"/> </filter>
	</defs>
	<style>
		.s0 { filter: url(#f1);fill: #79ff75;stroke: #afd9ae;stroke-miterlimit:10;stroke-width: 5 } 
		.s1 { fill: #afd9ae } 
		.s2 { fill: #f7e8e4 } 
		.s3 { fill: #fbceb1 } 
		.s4 { fill: #43b3ae } 
	</style>
	<g id="Layer 1">
		<path id="Shape 1" fill-rule="evenodd" class="s0" d="m0 0z"/>
		<path id="Shape 3" fill-rule="evenodd" class="s1" d="m716.7 437.7l-12.9 35.8-649.8-254.5z"/>
		<path id="Shape 7" fill-rule="evenodd" class="s2" d="m275 96.7c8.8 0 51.9 9.7 91-12.5 38-21.6 50.5-31.1 52.5-31.1 1 0 40.5 32.1 79 37 34.8 4.4 127.1-6 126.5-4.9-8 13-20.9 94.6-80 84.3-5.3-0.9-11.2-2.8-15.6-6.1-1.9-1.4-3.3-3.2-4.7-5.1-0.8-1.1-1.6-4.8-2.2-3.5-5 11.9-27.4 27.9-55.5 21.4-16-3.7-47.8-30.9-48.1-30.9-1.1 0-15.8 12.4-18.3 13.8-19.2 10.2-44.4 20-66.5 16.6-11.1-1.7-22.9-6.8-30-15.8-3.1-3.9-7-16.4-10.9-18.7-5.4-3.2-13.6-2.5-19.7-2.5"/>
		<path id="Shape 8" fill-rule="evenodd" class="s2" d="m250.5 98.7c-4.5-1.4-60.6-7.3-96.5-12.5-38-5.5-62.5-36.7-66.6-42.5-0.5-0.6-1-1-1.8-0.6-14.8 7-26.8 21.5-41 29.9-18.4 10.9-39.6 16-60.3 20.5-14.1 3-40.3 9.3-40.3-10.7 0-1.8-0.1 3.7 0.1 5.5 0.3 3.8 1.6 6.9 3.8 10.1 6.3 9.3 12.7 17.8 22.8 23.3 15 8 32.9 12.2 49.9 10 7-0.9 13.3-6.4 19.5-7.3 1.2-0.2-8.1 35.3 17.9 33.8 31-1.8 39.2-27.9 41.6-28.1 4.5-0.5 14.9 7.7 18.5 9.6 11.7 5.9 23.3 12.6 36.4 13.9 9.2 0.9 19.3 2 28.6 0.7 13.1-1.8 38.3-21.2 40.6-22.4 2.2-1.2 23.6 10.3 23.8 11.8"/>
		<path id="Shape 2" fill-rule="evenodd" class="s3" d="m281 49l-19 702-20-702z"/>
		<path id="Shape 4" fill-rule="evenodd" class="s4" d="m713 364.1l-654 266.9 637.6-304.5z"/>
		<path id="Shape 5" fill-rule="evenodd" class="s4" d="m696.5 326.7c17-7 21-6.1 27.4-5.4 21.1 2.4 39.4 14.3 48.2 33.9 2.7 5.9 5.2 14.2 2.8 20.7-2.1 6-9 18.1-17.4 20.8-8 2.6-36.7-23.3-40.6-31.3-0.4-0.9-8.3-2.1-8.4 2.8"/>
		<path id="Shape 6" fill-rule="evenodd" class="s1" d="m711 437.2c10.5 2 16.8-1.3 20-6.5 6.4-10.6 7.9-15.6 18.1-25 2.3-2.2 8-7.8 11.8-5.6 5 2.8 18.1 23.9 19.5 29.5 4.4 17.3-14.4 50.1-36.4 50.6-4.7 0.1-34.8-3.4-43-8.5-1.4-0.9 0.7 2.1-1 1.5"/>
	</g>
</svg>